<svg width="11" height="13" viewBox="0 0 11 13" fill="none" xmlns="http://www.w3.org/2000/svg">
<path d="M8.54262 1.2709V0.776119C8.54262 0.347438 8.21705 0 7.81535 0C7.41365 0 7.08808 0.347438 7.08808 0.776119V1.26119H3.91193V0.776119C3.91193 0.347438 3.58636 0 3.18466 0C2.78296 0 2.45739 0.347438 2.45739 0.776119V1.26119H2.45455C1.09091 1.26119 0 2.42537 0 3.8806V10.3806C0 11.8358 1.09091 13 2.45455 13H8.54545C9.90909 13 11 11.8358 11 10.3806V3.8806C10.9108 2.4575 9.86364 1.32064 8.54254 1.27097L8.54262 1.2709ZM9.81819 10.2835C9.81819 10.8656 9.36364 11.4477 8.72728 11.4477H2.45455C1.9091 11.4477 1.36364 10.9626 1.36364 10.2835V6.30589H9.81819V10.2835ZM9.81819 4.94768H1.36364V3.88052C1.36364 3.20141 1.81819 2.71634 2.45455 2.71634H2.45739V3.19474C2.45739 3.62342 2.78296 3.97086 3.18466 3.97086C3.58637 3.97086 3.91194 3.62342 3.91194 3.19474V2.71634H7.08808V3.19474C7.08808 3.62342 7.41365 3.97086 7.81535 3.97086C8.21706 3.97086 8.54263 3.62342 8.54263 3.19474V2.71634H8.72728C9.27274 2.71634 9.81819 3.20141 9.81819 3.88052L9.81819 4.94768Z" fill="#1A2447"/>
</svg>
