<svg width="11" height="14" viewBox="0 0 11 14" fill="none" xmlns="http://www.w3.org/2000/svg">
<path d="M10.1376 3.13441C9.24909 1.35745 7.45819 0.25 5.46295 0.25C4.64281 0.25 3.84988 0.441146 3.11204 0.810643C1.88184 1.43963 0.952219 2.51925 0.514952 3.85894C0.0776572 5.18471 0.187117 6.63386 0.802217 7.83685C1.33508 8.87591 3.33096 11.3636 4.46561 12.7716C4.71176 13.0722 5.08071 13.25 5.46355 13.25C5.85973 13.25 6.21534 13.0722 6.46149 12.7716C7.58222 11.3775 9.56418 8.8899 10.1249 7.86474C10.9167 6.40121 10.9166 4.67844 10.1376 3.13441ZM9.50858 7.50845C8.96182 8.51972 6.85709 11.1579 5.91353 12.3065C5.79072 12.4571 5.62626 12.5254 5.46235 12.5254C5.29843 12.5254 5.12062 12.4571 5.01116 12.3065C4.06823 11.1585 1.94961 8.50641 1.43006 7.50845C0.336546 5.36257 1.21113 2.56045 3.43924 1.43974C4.09546 1.1119 4.7789 0.961328 5.46237 0.961328C7.11658 0.961328 8.7157 1.87703 9.50863 3.44893C10.1787 4.7747 10.2059 6.2505 9.50858 7.50845Z" fill="#1A2447"/>
<path fill-rule="evenodd" clip-rule="evenodd" d="M3.00009 0.587105C3.77189 0.200605 4.60307 0 5.46294 0C7.55261 0 9.4301 1.16069 10.361 3.02235C11.1745 4.63512 11.1776 6.44431 10.3448 7.9837L10.3442 7.9847C10.0531 8.51688 9.40528 9.41022 8.7019 10.3315C7.99421 11.2585 7.21687 12.231 6.65633 12.9282L6.65492 12.93C6.36343 13.286 5.93799 13.5 5.46354 13.5C5.00383 13.5 4.56458 13.2871 4.27218 12.93L4.27094 12.9285C3.70369 12.2245 2.91912 11.2482 2.20944 10.3174C1.50483 9.39332 0.858168 8.49381 0.57976 7.95094C-0.066361 6.68727 -0.180213 5.16872 0.277408 3.781C0.735246 2.37861 1.70938 1.24702 2.99822 0.58805L3.00009 0.587105ZM3.22492 1.03371C2.05394 1.63272 1.16924 2.66003 0.752609 3.93651C0.335797 5.20018 0.440776 6.58073 1.02474 7.72292C1.27924 8.21912 1.8969 9.08288 2.60705 10.0143C3.3119 10.9387 4.09225 11.9099 4.6596 12.6139C4.8595 12.8576 5.15787 13 5.46354 13C5.78111 13 6.06662 12.8587 6.2674 12.614C6.82753 11.9173 7.60116 10.9493 8.30449 10.0281C9.01221 9.10111 9.63549 8.23834 9.90527 7.74527C10.6557 6.3579 10.6585 4.722 9.91436 3.24702C9.06831 1.55492 7.36367 0.5 5.46294 0.5C4.6829 0.5 3.92854 0.681524 3.22492 1.03371ZM5.46237 1.21133C4.81665 1.21133 4.1717 1.35334 3.55129 1.66322C1.44856 2.72107 0.622001 5.37075 1.6523 7.39396C1.9005 7.87025 2.5451 8.76435 3.26039 9.69931C3.97061 10.6276 4.7341 11.5753 5.20434 12.1478L5.20903 12.1535L5.21337 12.1595C5.2668 12.233 5.36179 12.2754 5.46234 12.2754C5.55364 12.2754 5.64602 12.2389 5.71979 12.1485C6.19028 11.5758 6.95109 10.6306 7.66143 9.70389C8.37668 8.77075 9.02647 7.87449 9.28866 7.38955L9.28992 7.38724C9.94281 6.20947 9.92241 4.82181 9.28551 3.5617C8.53671 2.07729 7.02587 1.21133 5.46237 1.21133ZM3.32751 1.21609C4.01943 0.870423 4.74126 0.711328 5.46237 0.711328C7.20722 0.711328 8.89466 1.67689 9.73175 3.33615C10.4348 4.72717 10.469 6.29059 9.7279 7.62845C9.44298 8.15497 8.76748 9.0828 8.05827 10.0081C7.34367 10.9404 6.57976 11.8893 6.1067 12.4652C5.9349 12.6754 5.69862 12.7754 5.46234 12.7754C5.23724 12.7754 4.97945 12.683 4.81375 12.46C4.34072 11.884 3.57587 10.9346 2.86328 10.0031C2.15412 9.07617 1.48002 8.14581 1.2083 7.62389L1.2073 7.62196C0.0513867 5.35363 0.974572 2.39959 3.32751 1.21609Z" fill="#1A2447"/>
<circle cx="5.5" cy="5.5" r="1.5" fill="#1A2447"/>
</svg>
