<svg width="46" height="58" viewBox="0 0 46 58" fill="none" xmlns="http://www.w3.org/2000/svg">
<g filter="url(#filter0_d)">
<path d="M22.6271 3.25269C12.8923 3.25269 5 10.7526 5 20.0007C5.00392 20.6973 5.05495 21.3939 5.15109 22.0846C6.65811 35.1514 21.4811 50.2216 21.4811 50.2216C21.7009 50.4591 21.958 50.6553 22.2445 50.8044L22.7468 50.9496L23.2491 50.8044C23.5376 50.6533 23.7986 50.4571 24.0242 50.2216C24.0242 50.2216 38.6373 35.1514 40.1091 22.0555C40.1994 21.3745 40.2485 20.6877 40.2544 20.001C40.2544 10.7529 32.3619 3.25269 22.6271 3.25269Z" fill="#EB5757"/>
<path fill-rule="evenodd" clip-rule="evenodd" d="M24.0242 50.2216C24.0242 50.2216 38.6373 35.1514 40.1091 22.0555C40.1994 21.3745 40.2485 20.6877 40.2544 20.001C40.2544 10.7529 32.3619 3.25269 22.6271 3.25269C12.8923 3.25269 5 10.7526 5 20.0007C5.00392 20.6973 5.05495 21.3939 5.15109 22.0846C6.65811 35.1514 21.4811 50.2216 21.4811 50.2216C21.7009 50.4591 21.958 50.6553 22.2445 50.8044L22.7468 50.9496L23.2491 50.8044C23.5376 50.6533 23.7986 50.4571 24.0242 50.2216ZM22.748 49.345C22.815 49.2953 22.8778 49.2398 22.9361 49.179L22.9392 49.1757L22.9421 49.1728L22.9498 49.1649L22.9779 49.1356C23.0034 49.1089 23.0423 49.0682 23.0937 49.0138C23.1965 48.905 23.3494 48.7419 23.5457 48.5284C23.9383 48.1015 24.5039 47.4739 25.1886 46.6789C26.5591 45.0875 28.401 42.832 30.286 40.1771C34.0967 34.8099 37.9208 28.0331 38.6116 21.8871L38.6132 21.8723L38.6152 21.8574C38.6972 21.2388 38.7417 20.616 38.7473 19.9943C38.7436 11.6532 31.6007 4.7597 22.6271 4.7597C13.6526 4.7597 6.50944 11.6542 6.50702 19.9964C6.51074 20.6238 6.5568 21.2524 6.64372 21.8768L6.64616 21.8943L6.64819 21.9119C7.35481 28.0388 11.2353 34.8066 15.1037 40.1718C17.0167 42.8251 18.8856 45.0799 20.2762 46.671C20.971 47.4659 21.5448 48.0935 21.9432 48.5205C22.1423 48.734 22.2975 48.8972 22.4019 49.006C22.4541 49.0604 22.4935 49.1012 22.5194 49.1278L22.548 49.1571L22.5555 49.1648L22.5716 49.1811L22.5871 49.1979C22.637 49.2518 22.6907 49.3009 22.748 49.345Z" fill="white"/>
<path d="M29.6146 20.3323C29.6146 24.2163 26.466 27.365 22.5819 27.365C18.6978 27.365 15.5491 24.2163 15.5491 20.3323C15.5491 16.4482 18.6978 13.2995 22.5819 13.2995C26.466 13.2995 29.6146 16.4482 29.6146 20.3323Z" fill="#D01313"/>
</g>
<defs>
<filter id="filter0_d" x="0" y="0.252686" width="45.2544" height="57.697" filterUnits="userSpaceOnUse" color-interpolation-filters="sRGB">
<feFlood flood-opacity="0" result="BackgroundImageFix"/>
<feColorMatrix in="SourceAlpha" type="matrix" values="0 0 0 0 0 0 0 0 0 0 0 0 0 0 0 0 0 0 127 0"/>
<feOffset dy="2"/>
<feGaussianBlur stdDeviation="2.5"/>
<feColorMatrix type="matrix" values="0 0 0 0 0 0 0 0 0 0 0 0 0 0 0 0 0 0 0.2 0"/>
<feBlend mode="normal" in2="BackgroundImageFix" result="effect1_dropShadow"/>
<feBlend mode="normal" in="SourceGraphic" in2="effect1_dropShadow" result="shape"/>
</filter>
</defs>
</svg>
