<svg width="46" height="58" viewBox="0 0 46 58" fill="none" xmlns="http://www.w3.org/2000/svg">
<g filter="url(#filter0_d)">
<path d="M23.3727 3.25269C13.6379 3.25269 5.74565 10.7526 5.74565 20.0007C5.74958 20.6973 5.8006 21.3939 5.89675 22.0846C7.40376 35.1514 22.2268 50.2216 22.2268 50.2216C22.4466 50.4591 22.7036 50.6553 22.9901 50.8044L23.4924 50.9496L23.9948 50.8044C24.2832 50.6533 24.5442 50.4571 24.7699 50.2216C24.7699 50.2216 39.3829 35.1514 40.8548 22.0555C40.9451 21.3745 40.9941 20.6877 41 20.001C41 10.7529 33.1076 3.25269 23.3727 3.25269Z" fill="#23A2D1"/>
<path fill-rule="evenodd" clip-rule="evenodd" d="M24.7699 50.2216C24.7699 50.2216 39.3829 35.1514 40.8548 22.0555C40.9451 21.3745 40.9941 20.6877 41 20.001C41 10.7529 33.1076 3.25269 23.3727 3.25269C13.6379 3.25269 5.74565 10.7526 5.74565 20.0007C5.74958 20.6973 5.8006 21.3939 5.89675 22.0846C7.40376 35.1514 22.2268 50.2216 22.2268 50.2216C22.4466 50.4591 22.7036 50.6553 22.9901 50.8044L23.4924 50.9496L23.9948 50.8044C24.2832 50.6533 24.5442 50.4571 24.7699 50.2216ZM23.4937 49.345C23.5606 49.2953 23.6235 49.2398 23.6818 49.179L23.6849 49.1757L23.6878 49.1728L23.6954 49.1649L23.7235 49.1356C23.749 49.1089 23.7879 49.0682 23.8393 49.0138C23.9422 48.905 24.0951 48.7419 24.2914 48.5284C24.684 48.1015 25.2496 47.4739 25.9343 46.6789C27.3048 45.0875 29.1466 42.832 31.0316 40.1771C34.8423 34.8099 38.6665 28.0331 39.3572 21.8871L39.3589 21.8723L39.3609 21.8574C39.4429 21.2388 39.4874 20.616 39.493 19.9943C39.4892 11.6532 32.3464 4.7597 23.3727 4.7597C14.3982 4.7597 7.25509 11.6542 7.25267 19.9964C7.2564 20.6238 7.30245 21.2524 7.38937 21.8768L7.39181 21.8943L7.39384 21.9119C8.10046 28.0388 11.9809 34.8066 15.8493 40.1718C17.7624 42.8251 19.6313 45.0799 21.0219 46.671C21.7166 47.4659 22.2905 48.0935 22.6888 48.5205C22.888 48.734 23.0432 48.8972 23.1475 49.006C23.1997 49.0604 23.2392 49.1012 23.2651 49.1278L23.2936 49.1571L23.3012 49.1648L23.3172 49.1811L23.3328 49.1979C23.3826 49.2518 23.4363 49.3009 23.4937 49.345Z" fill="white"/>
<path d="M30.3603 20.3323C30.3603 24.2163 27.2116 27.365 23.3275 27.365C19.4434 27.365 16.2948 24.2163 16.2948 20.3323C16.2948 16.4482 19.4434 13.2995 23.3275 13.2995C27.2116 13.2995 30.3603 16.4482 30.3603 20.3323Z" fill="#157AA0"/>
</g>
<defs>
<filter id="filter0_d" x="0.745651" y="0.252686" width="45.2544" height="57.697" filterUnits="userSpaceOnUse" color-interpolation-filters="sRGB">
<feFlood flood-opacity="0" result="BackgroundImageFix"/>
<feColorMatrix in="SourceAlpha" type="matrix" values="0 0 0 0 0 0 0 0 0 0 0 0 0 0 0 0 0 0 127 0"/>
<feOffset dy="2"/>
<feGaussianBlur stdDeviation="2.5"/>
<feColorMatrix type="matrix" values="0 0 0 0 0 0 0 0 0 0 0 0 0 0 0 0 0 0 0.2 0"/>
<feBlend mode="normal" in2="BackgroundImageFix" result="effect1_dropShadow"/>
<feBlend mode="normal" in="SourceGraphic" in2="effect1_dropShadow" result="shape"/>
</filter>
</defs>
</svg>
