<svg width="35" height="36" viewBox="0 0 35 36" fill="none" xmlns="http://www.w3.org/2000/svg">
<path fill-rule="evenodd" clip-rule="evenodd" d="M15.7125 1.4585C16.774 0.670894 18.226 0.670898 19.2875 1.4585L33.2875 11.8456C34.0503 12.4115 34.5 13.3052 34.5 14.2549V33C34.5 34.6569 33.1569 36 31.5 36H24.5C22.8431 36 21.5 34.6569 21.5 33V25.5H14V33C14 34.6569 12.6569 36 11 36H3.5C1.84315 36 0.5 34.6569 0.5 33V14.2549C0.5 13.3052 0.949723 12.4115 1.71246 11.8456L15.7125 1.4585ZM17.5 3.8678L3.5 14.2549L3.5 33H11V25.5C11 23.8432 12.3431 22.5 14 22.5H21.5C23.1569 22.5 24.5 23.8432 24.5 25.5V33H31.5V14.2549L17.5 3.8678L18.3938 2.66315L17.5 3.8678Z" fill="#AFB2BF"/>
</svg>
