<svg width="32" height="37" viewBox="0 0 32 37" fill="none" xmlns="http://www.w3.org/2000/svg">
<path fill-rule="evenodd" clip-rule="evenodd" d="M31 36C31 27.3353 24.2848 20.3099 16 20.3099C7.71522 20.3099 1 27.3358 1 36H3.30809C3.30809 28.6684 8.99069 22.7245 15.9998 22.7245C23.009 22.7245 28.6916 28.6684 28.6916 36H31ZM16 17.8967C20.46 17.8967 24.0774 14.1147 24.0774 9.44769C24.0774 4.78219 20.4599 1 16 1C11.5401 1 7.92261 4.78197 7.92261 9.44769C7.92261 14.1149 11.5401 17.8967 16 17.8967ZM16 15.4819C12.8139 15.4819 10.2304 12.7817 10.2304 9.44747C10.2304 6.11494 12.8137 3.41303 16 3.41303C19.1863 3.41303 21.7696 6.11494 21.7696 9.44747C21.7696 12.7817 19.1863 15.4819 16 15.4819Z" fill="#AFB2BF"/>
<path fill-rule="evenodd" clip-rule="evenodd" d="M7.42261 9.44769C7.42261 4.52713 11.2432 0.5 16 0.5C20.7569 0.5 24.5774 4.52736 24.5774 9.44769C24.5774 14.3695 20.757 18.3967 16 18.3967C11.2431 18.3967 7.42261 14.3697 7.42261 9.44769ZM16 1.5C11.8371 1.5 8.42261 5.03681 8.42261 9.44769C8.42261 13.8601 11.8371 17.3967 16 17.3967C20.163 17.3967 23.5774 13.8599 23.5774 9.44769C23.5774 5.03702 20.1629 1.5 16 1.5ZM16 3.91303C13.1107 3.91303 10.7304 6.36969 10.7304 9.44747C10.7304 12.5268 13.1108 14.9819 16 14.9819C18.8894 14.9819 21.2696 12.5269 21.2696 9.44747C21.2696 6.36969 18.8893 3.91303 16 3.91303ZM9.73043 9.44747C9.73043 5.8602 12.5166 2.91303 16 2.91303C19.4834 2.91303 22.2696 5.8602 22.2696 9.44747C22.2696 13.0365 19.4833 15.9819 16 15.9819C12.5169 15.9819 9.73043 13.0366 9.73043 9.44747ZM0.5 36C0.5 27.0811 7.41809 19.8099 16 19.8099C24.5819 19.8099 31.5 27.0806 31.5 36V36.5H28.1916V36C28.1916 28.9231 22.7119 23.2245 15.9998 23.2245C9.28779 23.2245 3.80809 28.9231 3.80809 36V36.5H0.5V36ZM1.50769 35.5H2.81663C3.06846 28.1436 8.85479 22.2245 15.9998 22.2245C23.1449 22.2245 28.9312 28.1436 29.183 35.5H30.4923C30.2403 27.3229 23.8287 20.8099 16 20.8099C8.17128 20.8099 1.75974 27.3233 1.50769 35.5Z" fill="#AFB2BF"/>
</svg>
