<svg width="30" height="35" viewBox="0 0 30 35" fill="none" xmlns="http://www.w3.org/2000/svg">
<g >
<path d="M19.3712 8.85544H22.692V12.1762H19.3712V8.85544Z" fill="#AFB2BF"/>
<path d="M19.3712 17.7109H22.692V21.0316H19.3712V17.7109Z" fill="#AFB2BF"/>
<path d="M10.5158 30.5723L14.9435 35L19.3713 30.5723L23.799 35L29.8871 28.9119V3.87425C29.8871 2.8473 29.4785 1.86147 28.7521 1.13505C28.0256 0.408623 27.0397 0 26.0128 0H3.87425C1.73389 0 0 1.73389 0 3.87425V28.9119L6.08811 35L10.5158 30.5723ZM3.32079 3.87425C3.32079 3.56942 3.56942 3.32079 3.87425 3.32079H26.0128C26.1599 3.32079 26.3004 3.37916 26.4042 3.48294C26.5079 3.58671 26.5663 3.72724 26.5663 3.87425V27.5415L23.799 30.3088L19.3713 25.8811L14.9435 30.3088L10.5158 25.8811L6.08811 30.3088L3.32079 27.5415V3.87425Z" fill="#AFB2BF"/>
<path d="M7.74854 8.85544H15.497V12.1762H7.74854V8.85544Z" fill="#AFB2BF"/>
<path d="M7.74854 17.7109H15.497V21.0316H7.74854V17.7109Z" fill="#AFB2BF"/>
</g>
</svg>
