<svg width="35" height="35" viewBox="0 0 35 35" fill="none" xmlns="http://www.w3.org/2000/svg">
<path d="M35 31.0407L25.6791 21.7206C27.1462 19.5058 27.9994 16.8549 27.9994 14C27.9994 6.26709 21.7318 0 13.9997 0C6.2676 0 0 6.26849 0 14.0014C0 21.7315 6.2676 28.0013 13.9997 28.0013C16.8532 28.0013 19.507 27.1455 21.721 25.6799L31.0405 35L35 31.0407ZM3.96655 14.0028C3.96655 8.46158 8.4595 3.97179 13.9997 3.97179C19.5414 3.97179 24.0343 8.46158 24.0343 14.0028C24.0343 19.544 19.5414 24.0366 13.9997 24.0366C8.4595 24.0366 3.96655 19.544 3.96655 14.0028Z" fill="#AFB2BF"/>
</svg>
